<svg xmlns="http://www.w3.org/2000/svg" viewBox="0 0 1000 1000">
  <path d="M971.2 252c-40.8-66.9-126.3-88.7-199.3-46.5-102.7 59.3-39.7 217.7-125.4 282.2-.3-61.4-20.3-117.5-55-161.1-44.1-55.5-111.8-90.8-192.8-90.8-82.2 0-147 43.5-189.1 108.6-32 49.4-50.9 111.3-54.4 176-59.6 18.8-111.5-23.1-141.9-67.5C-15.3 629.4 147 623 173.6 625.7c23.1 2.4-45.1 149.7-5.5 175.6 31.6 20.7 132.8 18.7 153.6-.2 25.5-23.2 7.9-93.5-4.1-156.8 78.9 3.3 104.3 4.6 182.7-3.4-8.6 83.4-38.6 140.6-.3 162.5 26 14.9 133.6 13.5 160.5-13.8 26.4-26.8-34.5-146.9-4.9-169.8 121.6-94 120-164.3 169.7-193 34.1-19.7 108.3 5.8 147.5-44.5 26.4-33.9 19.7-95.4-1.6-130.3z"/>
</svg>
